# Bloom Enhanced 3D Human Body Model (CC-BY 4.0)
# Sculpted anatomical topology, facial features, hands, hair, fitted sportswear

v 0.000 153.000 8.200
v 1.837 153.000 7.462
v 3.394 153.000 5.359
v 4.435 153.000 3.190
v 4.800 153.000 1.200
v 4.435 153.000 -0.790
v 3.394 153.000 -2.477
v 1.837 153.000 -3.604
v 0.000 153.000 -4.000
v -1.837 153.000 -3.604
v -3.394 153.000 -2.477
v -4.435 153.000 -0.790
v -4.800 153.000 1.200
v -4.435 153.000 3.190
v -3.394 153.000 5.359
v -1.837 153.000 7.462
v 0.000 156.500 10.200
v 2.373 156.500 9.139
v 4.384 156.500 6.119
v 5.728 156.500 3.926
v 6.200 156.500 1.400
v 5.728 156.500 -1.126
v 4.384 156.500 -3.267
v 2.373 156.500 -4.698
v 0.000 156.500 -5.200
v -2.373 156.500 -4.698
v -4.384 156.500 -3.267
v -5.728 156.500 -1.126
v -6.200 156.500 1.400
v -5.728 156.500 3.926
v -4.384 156.500 6.119
v -2.373 156.500 9.139
v 0.000 161.000 12.000
v 2.755 161.000 10.447
v 5.091 161.000 6.574
v 6.652 161.000 4.108
v 7.200 161.000 1.200
v 6.652 161.000 -1.708
v 5.091 161.000 -4.174
v 2.755 161.000 -5.821
v 0.000 161.000 -6.400
v -2.755 161.000 -5.821
v -5.091 161.000 -4.174
v -6.652 161.000 -1.708
v -7.200 161.000 1.200
v -6.652 161.000 4.108
v -5.091 161.000 6.574
v -2.755 161.000 10.447
v 0.000 165.500 9.800
v 2.832 165.500 8.993
v 5.233 165.500 6.695
v 6.837 165.500 3.585
v 7.400 165.500 0.600
v 6.837 165.500 -2.385
v 5.233 165.500 -4.915
v 2.832 165.500 -6.606
v 0.000 165.500 -7.200
v -2.832 165.500 -6.606
v -5.233 165.500 -4.915
v -6.837 165.500 -2.385
v -7.400 165.500 0.600
v -6.837 165.500 3.585
v -5.233 165.500 6.695
v -2.832 165.500 8.993
v 0.000 169.000 7.200
v 2.602 169.000 6.652
v 4.808 169.000 5.091
v 6.282 169.000 2.755
v 6.800 169.000 0.000
v 6.282 169.000 -2.755
v 4.808 169.000 -5.091
v 2.602 169.000 -6.652
v 0.000 169.000 -7.200
v -2.602 169.000 -6.652
v -4.808 169.000 -5.091
v -6.282 169.000 -2.755
v -6.800 169.000 -0.000
v -6.282 169.000 2.755
v -4.808 169.000 5.091
v -2.602 169.000 6.652
v 0.000 171.500 6.000
v 2.220 171.500 5.528
v 4.101 171.500 4.184
v 5.359 171.500 2.173
v 5.800 171.500 -0.200
v 5.359 171.500 -2.573
v 4.101 171.500 -4.584
v 2.220 171.500 -5.928
v 0.000 171.500 -6.400
v -2.220 171.500 -5.928
v -4.101 171.500 -4.584
v -5.359 171.500 -2.573
v -5.800 171.500 -0.200
v -5.359 171.500 2.173
v -4.101 171.500 4.184
v -2.220 171.500 5.528
v 0.000 173.000 -0.200
v 0.000 160.000 7.400
v 3.298 160.000 6.608
v 5.942 160.000 4.388
v 7.409 160.000 1.180
v 7.409 160.000 -2.380
v 5.942 160.000 -5.588
v 3.298 160.000 -7.808
v 0.000 160.000 -8.600
v -3.298 160.000 -7.808
v -5.942 160.000 -5.588
v -7.409 160.000 -2.380
v -7.409 160.000 1.180
v -5.942 160.000 4.388
v -3.298 160.000 6.608
v 0.000 165.000 7.800
v 3.428 165.000 6.978
v 6.176 165.000 4.675
v 7.702 165.000 1.347
v 7.702 165.000 -2.347
v 6.176 165.000 -5.675
v 3.428 165.000 -7.978
v 0.000 165.000 -8.800
v -3.428 165.000 -7.978
v -6.176 165.000 -5.675
v -7.702 165.000 -2.347
v -7.702 165.000 1.347
v -6.176 165.000 4.675
v -3.428 165.000 6.978
v 0.000 169.500 7.600
v 3.341 169.500 6.798
v 6.020 169.500 4.550
v 7.507 169.500 1.302
v 7.507 169.500 -2.302
v 6.020 169.500 -5.550
v 3.341 169.500 -7.798
v 0.000 169.500 -8.600
v -3.341 169.500 -7.798
v -6.020 169.500 -5.550
v -7.507 169.500 -2.302
v -7.507 169.500 1.302
v -6.020 169.500 4.550
v -3.341 169.500 6.798
v 0.000 172.500 6.500
v 2.864 172.500 5.807
v 5.160 172.500 3.864
v 6.435 172.500 1.058
v 6.435 172.500 -2.058
v 5.160 172.500 -4.864
v 2.864 172.500 -6.807
v 0.000 172.500 -7.500
v -2.864 172.500 -6.807
v -5.160 172.500 -4.864
v -6.435 172.500 -2.058
v -6.435 172.500 1.058
v -5.160 172.500 3.864
v -2.864 172.500 5.807
v 0.000 174.500 -0.500
v 0.000 172.500 -0.400
v 1.646 172.500 -0.935
v 2.663 172.500 -2.335
v 2.663 172.500 -4.065
v 1.646 172.500 -5.465
v 0.000 172.500 -6.000
v -1.646 172.500 -5.465
v -2.663 172.500 -4.065
v -2.663 172.500 -2.335
v -1.646 172.500 -0.935
v 0.000 175.000 -0.600
v 1.881 175.000 -1.211
v 3.043 175.000 -2.811
v 3.043 175.000 -4.789
v 1.881 175.000 -6.389
v 0.000 175.000 -7.000
v -1.881 175.000 -6.389
v -3.043 175.000 -4.789
v -3.043 175.000 -2.811
v -1.881 175.000 -1.211
v 0.000 176.800 -1.400
v 1.411 176.800 -1.858
v 2.283 176.800 -3.058
v 2.283 176.800 -4.542
v 1.411 176.800 -5.742
v 0.000 176.800 -6.200
v -1.411 176.800 -5.742
v -2.283 176.800 -4.542
v -2.283 176.800 -3.058
v -1.411 176.800 -1.858
v 0.000 177.500 -3.800
v 0.000 144.000 6.400
v 2.343 144.000 5.845
v 4.222 144.000 4.292
v 5.265 144.000 2.046
v 5.265 144.000 -0.446
v 4.222 144.000 -2.692
v 2.343 144.000 -4.245
v 0.000 144.000 -4.800
v -2.343 144.000 -4.245
v -4.222 144.000 -2.692
v -5.265 144.000 -0.446
v -5.265 144.000 2.046
v -4.222 144.000 4.292
v -2.343 144.000 5.845
v 0.000 148.500 5.900
v 2.083 148.500 5.405
v 3.753 148.500 4.017
v 4.680 148.500 2.013
v 4.680 148.500 -0.213
v 3.753 148.500 -2.217
v 2.083 148.500 -3.605
v 0.000 148.500 -4.100
v -2.083 148.500 -3.605
v -3.753 148.500 -2.217
v -4.680 148.500 -0.213
v -4.680 148.500 2.013
v -3.753 148.500 4.017
v -2.083 148.500 5.405
v 0.000 153.000 6.200
v 2.126 153.000 5.695
v 3.831 153.000 4.280
v 4.777 153.000 2.235
v 4.777 153.000 -0.035
v 3.831 153.000 -2.080
v 2.126 153.000 -3.495
v 0.000 153.000 -4.000
v -2.126 153.000 -3.495
v -3.831 153.000 -2.080
v -4.777 153.000 -0.035
v -4.777 153.000 2.235
v -3.831 153.000 4.280
v -2.126 153.000 5.695
v 0.000 88.000 12.200
v 5.932 88.000 11.271
v 10.960 88.000 8.627
v 14.320 88.000 4.669
v 15.500 88.000 0.000
v 14.320 88.000 -4.669
v 10.960 88.000 -8.627
v 5.932 88.000 -11.271
v 0.000 88.000 -12.200
v -5.932 88.000 -11.271
v -10.960 88.000 -8.627
v -14.320 88.000 -4.669
v -15.500 88.000 -0.000
v -14.320 88.000 4.669
v -10.960 88.000 8.627
v -5.932 88.000 11.271
v 0.000 95.000 13.000
v 6.582 95.000 11.995
v 12.162 95.000 9.134
v 15.891 95.000 4.851
v 17.200 95.000 -0.200
v 15.891 95.000 -5.251
v 12.162 95.000 -9.534
v 6.582 95.000 -12.395
v 0.000 95.000 -13.400
v -6.582 95.000 -12.395
v -12.162 95.000 -9.534
v -15.891 95.000 -5.251
v -17.200 95.000 -0.200
v -15.891 95.000 4.851
v -12.162 95.000 9.134
v -6.582 95.000 11.995
v 0.000 103.000 12.000
v 6.123 103.000 11.102
v 11.314 103.000 8.544
v 14.782 103.000 4.716
v 16.000 103.000 0.200
v 14.782 103.000 -4.316
v 11.314 103.000 -8.144
v 6.123 103.000 -10.702
v 0.000 103.000 -11.600
v -6.123 103.000 -10.702
v -11.314 103.000 -8.144
v -14.782 103.000 -4.316
v -16.000 103.000 0.200
v -14.782 103.000 4.716
v -11.314 103.000 8.544
v -6.123 103.000 11.102
v 0.000 112.000 10.900
v 5.434 112.000 10.101
v 10.041 112.000 7.825
v 13.119 112.000 4.418
v 14.200 112.000 0.400
v 13.119 112.000 -3.618
v 10.041 112.000 -7.025
v 5.434 112.000 -9.301
v 0.000 112.000 -10.100
v -5.434 112.000 -9.301
v -10.041 112.000 -7.025
v -13.119 112.000 -3.618
v -14.200 112.000 0.400
v -13.119 112.000 4.418
v -10.041 112.000 7.825
v -5.434 112.000 10.101
v 0.000 120.000 11.700
v 6.046 120.000 10.847
v 11.172 120.000 8.420
v 14.597 120.000 4.786
v 15.800 120.000 0.500
v 14.597 120.000 -3.786
v 11.172 120.000 -7.420
v 6.046 120.000 -9.847
v 0.000 120.000 -10.700
v -6.046 120.000 -9.847
v -11.172 120.000 -7.420
v -14.597 120.000 -3.786
v -15.800 120.000 0.500
v -14.597 120.000 4.786
v -11.172 120.000 8.420
v -6.046 120.000 10.847
v 0.000 130.000 13.000
v 6.812 130.000 12.056
v 12.587 130.000 9.368
v 16.445 130.000 5.345
v 17.800 130.000 0.600
v 16.445 130.000 -4.145
v 12.587 130.000 -8.168
v 6.812 130.000 -10.856
v 0.000 130.000 -11.800
v -6.812 130.000 -10.856
v -12.587 130.000 -8.168
v -16.445 130.000 -4.145
v -17.800 130.000 0.600
v -16.445 130.000 5.345
v -12.587 130.000 9.368
v -6.812 130.000 12.056
v 0.000 138.000 12.900
v 7.348 138.000 11.948
v 13.576 138.000 9.239
v 17.738 138.000 5.184
v 19.200 138.000 0.400
v 17.738 138.000 -4.384
v 13.576 138.000 -8.439
v 7.348 138.000 -11.148
v 0.000 138.000 -12.100
v -7.348 138.000 -11.148
v -13.576 138.000 -8.439
v -17.738 138.000 -4.384
v -19.200 138.000 0.400
v -17.738 138.000 5.184
v -13.576 138.000 9.239
v -7.348 138.000 11.948
v 0.000 144.000 11.400
v 6.888 144.000 10.547
v 12.728 144.000 8.120
v 16.630 144.000 4.486
v 18.000 144.000 0.200
v 16.630 144.000 -4.086
v 12.728 144.000 -7.720
v 6.888 144.000 -10.147
v 0.000 144.000 -11.000
v -6.888 144.000 -10.147
v -12.728 144.000 -7.720
v -16.630 144.000 -4.086
v -18.000 144.000 0.200
v -16.630 144.000 4.486
v -12.728 144.000 8.120
v -6.888 144.000 10.547
v -20.000 142.000 4.800
v -17.296 142.000 3.921
v -15.625 142.000 1.621
v -15.625 142.000 -1.221
v -17.296 142.000 -3.521
v -20.000 142.000 -4.400
v -22.704 142.000 -3.521
v -24.375 142.000 -1.221
v -24.375 142.000 1.621
v -22.704 142.000 3.921
v -21.600 132.000 4.600
v -19.073 132.000 3.779
v -17.510 132.000 1.629
v -17.510 132.000 -1.029
v -19.073 132.000 -3.179
v -21.600 132.000 -4.000
v -24.127 132.000 -3.179
v -25.690 132.000 -1.029
v -25.690 132.000 1.629
v -24.127 132.000 3.779
v -23.200 122.000 4.200
v -20.966 122.000 3.474
v -19.586 122.000 1.574
v -19.586 122.000 -0.774
v -20.966 122.000 -2.674
v -23.200 122.000 -3.400
v -25.434 122.000 -2.674
v -26.814 122.000 -0.774
v -26.814 122.000 1.574
v -25.434 122.000 3.474
v -24.800 112.000 3.700
v -22.860 112.000 3.070
v -21.662 112.000 1.420
v -21.662 112.000 -0.620
v -22.860 112.000 -2.270
v -24.800 112.000 -2.900
v -26.740 112.000 -2.270
v -27.938 112.000 -0.620
v -27.938 112.000 1.420
v -26.740 112.000 3.070
v -25.900 102.000 3.600
v -24.078 102.000 3.008
v -22.952 102.000 1.458
v -22.952 102.000 -0.458
v -24.078 102.000 -2.008
v -25.900 102.000 -2.600
v -27.722 102.000 -2.008
v -28.848 102.000 -0.458
v -28.848 102.000 1.458
v -27.722 102.000 3.008
v -26.800 92.000 3.100
v -25.272 92.000 2.603
v -24.327 92.000 1.303
v -24.327 92.000 -0.303
v -25.272 92.000 -1.603
v -26.800 92.000 -2.100
v -28.328 92.000 -1.603
v -29.273 92.000 -0.303
v -29.273 92.000 1.303
v -28.328 92.000 2.603
v -27.400 85.000 2.500
v -25.637 85.000 2.118
v -24.547 85.000 1.118
v -24.547 85.000 -0.118
v -25.637 85.000 -1.118
v -27.400 85.000 -1.500
v -29.163 85.000 -1.118
v -30.253 85.000 -0.118
v -30.253 85.000 1.118
v -29.163 85.000 2.118
v -27.700 79.000 1.900
v -26.407 79.000 1.633
v -25.608 79.000 0.933
v -25.608 79.000 0.067
v -26.407 79.000 -0.633
v -27.700 79.000 -0.900
v -28.993 79.000 -0.633
v -29.792 79.000 0.067
v -29.792 79.000 0.933
v -28.993 79.000 1.633
v -27.800 77.000 0.500
v 20.000 142.000 4.800
v 22.704 142.000 3.921
v 24.375 142.000 1.621
v 24.375 142.000 -1.221
v 22.704 142.000 -3.521
v 20.000 142.000 -4.400
v 17.296 142.000 -3.521
v 15.625 142.000 -1.221
v 15.625 142.000 1.621
v 17.296 142.000 3.921
v 21.600 132.000 4.600
v 24.127 132.000 3.779
v 25.690 132.000 1.629
v 25.690 132.000 -1.029
v 24.127 132.000 -3.179
v 21.600 132.000 -4.000
v 19.073 132.000 -3.179
v 17.510 132.000 -1.029
v 17.510 132.000 1.629
v 19.073 132.000 3.779
v 23.200 122.000 4.200
v 25.434 122.000 3.474
v 26.814 122.000 1.574
v 26.814 122.000 -0.774
v 25.434 122.000 -2.674
v 23.200 122.000 -3.400
v 20.966 122.000 -2.674
v 19.586 122.000 -0.774
v 19.586 122.000 1.574
v 20.966 122.000 3.474
v 24.800 112.000 3.700
v 26.740 112.000 3.070
v 27.938 112.000 1.420
v 27.938 112.000 -0.620
v 26.740 112.000 -2.270
v 24.800 112.000 -2.900
v 22.860 112.000 -2.270
v 21.662 112.000 -0.620
v 21.662 112.000 1.420
v 22.860 112.000 3.070
v 25.900 102.000 3.600
v 27.722 102.000 3.008
v 28.848 102.000 1.458
v 28.848 102.000 -0.458
v 27.722 102.000 -2.008
v 25.900 102.000 -2.600
v 24.078 102.000 -2.008
v 22.952 102.000 -0.458
v 22.952 102.000 1.458
v 24.078 102.000 3.008
v 26.800 92.000 3.100
v 28.328 92.000 2.603
v 29.273 92.000 1.303
v 29.273 92.000 -0.303
v 28.328 92.000 -1.603
v 26.800 92.000 -2.100
v 25.272 92.000 -1.603
v 24.327 92.000 -0.303
v 24.327 92.000 1.303
v 25.272 92.000 2.603
v 27.400 85.000 2.500
v 29.163 85.000 2.118
v 30.253 85.000 1.118
v 30.253 85.000 -0.118
v 29.163 85.000 -1.118
v 27.400 85.000 -1.500
v 25.637 85.000 -1.118
v 24.547 85.000 -0.118
v 24.547 85.000 1.118
v 25.637 85.000 2.118
v 27.700 79.000 1.900
v 28.993 79.000 1.633
v 29.792 79.000 0.933
v 29.792 79.000 0.067
v 28.993 79.000 -0.633
v 27.700 79.000 -0.900
v 26.407 79.000 -0.633
v 25.608 79.000 0.067
v 25.608 79.000 0.933
v 26.407 79.000 1.633
v 27.800 77.000 0.500
v -7.600 88.000 7.200
v -4.000 88.000 6.235
v -1.365 88.000 3.600
v -0.400 88.000 0.000
v -1.365 88.000 -3.600
v -4.000 88.000 -6.235
v -7.600 88.000 -7.200
v -11.200 88.000 -6.235
v -13.835 88.000 -3.600
v -14.800 88.000 -0.000
v -13.835 88.000 3.600
v -11.200 88.000 6.235
v -7.600 78.000 6.600
v -4.300 78.000 5.716
v -1.884 78.000 3.300
v -1.000 78.000 0.000
v -1.884 78.000 -3.300
v -4.300 78.000 -5.716
v -7.600 78.000 -6.600
v -10.900 78.000 -5.716
v -13.316 78.000 -3.300
v -14.200 78.000 -0.000
v -13.316 78.000 3.300
v -10.900 78.000 5.716
v -7.600 66.000 5.800
v -4.700 66.000 5.023
v -2.577 66.000 2.900
v -1.800 66.000 0.000
v -2.577 66.000 -2.900
v -4.700 66.000 -5.023
v -7.600 66.000 -5.800
v -10.500 66.000 -5.023
v -12.623 66.000 -2.900
v -13.400 66.000 -0.000
v -12.623 66.000 2.900
v -10.500 66.000 5.023
v -7.600 54.000 5.100
v -5.150 54.000 4.444
v -3.356 54.000 2.650
v -2.700 54.000 0.200
v -3.356 54.000 -2.250
v -5.150 54.000 -4.044
v -7.600 54.000 -4.700
v -10.050 54.000 -4.044
v -11.844 54.000 -2.250
v -12.500 54.000 0.200
v -11.844 54.000 2.650
v -10.050 54.000 4.444
v -7.600 42.000 5.100
v -4.900 42.000 4.377
v -2.923 42.000 2.400
v -2.200 42.000 -0.300
v -2.923 42.000 -3.000
v -4.900 42.000 -4.977
v -7.600 42.000 -5.700
v -10.300 42.000 -4.977
v -12.277 42.000 -3.000
v -13.000 42.000 -0.300
v -12.277 42.000 2.400
v -10.300 42.000 4.377
v -7.600 28.000 3.900
v -5.600 28.000 3.364
v -4.136 28.000 1.900
v -3.600 28.000 -0.100
v -4.136 28.000 -2.100
v -5.600 28.000 -3.564
v -7.600 28.000 -4.100
v -9.600 28.000 -3.564
v -11.064 28.000 -2.100
v -11.600 28.000 -0.100
v -11.064 28.000 1.900
v -9.600 28.000 3.364
v -7.600 14.000 3.400
v -5.900 14.000 2.944
v -4.656 14.000 1.700
v -4.200 14.000 0.000
v -4.656 14.000 -1.700
v -5.900 14.000 -2.944
v -7.600 14.000 -3.400
v -9.300 14.000 -2.944
v -10.544 14.000 -1.700
v -11.000 14.000 -0.000
v -10.544 14.000 1.700
v -9.300 14.000 2.944
v -7.600 12.000 5.300
v -5.700 12.000 4.711
v -4.309 12.000 3.100
v -3.800 12.000 0.900
v -4.309 12.000 -1.300
v -5.700 12.000 -2.911
v -7.600 12.000 -3.500
v -9.500 12.000 -2.911
v -10.891 12.000 -1.300
v -11.400 12.000 0.900
v -10.891 12.000 3.100
v -9.500 12.000 4.711
v -7.600 7.000 8.800
v -5.300 7.000 7.969
v -3.616 7.000 5.700
v -3.000 7.000 2.600
v -3.616 7.000 -0.500
v -5.300 7.000 -2.769
v -7.600 7.000 -3.600
v -9.900 7.000 -2.769
v -11.584 7.000 -0.500
v -12.200 7.000 2.600
v -11.584 7.000 5.700
v -9.900 7.000 7.969
v -7.600 3.000 11.800
v -5.100 3.000 10.728
v -3.270 3.000 7.800
v -2.600 3.000 3.800
v -3.270 3.000 -0.200
v -5.100 3.000 -3.128
v -7.600 3.000 -4.200
v -10.100 3.000 -3.128
v -11.930 3.000 -0.200
v -12.600 3.000 3.800
v -11.930 3.000 7.800
v -10.100 3.000 10.728
v -7.600 0.000 12.300
v -5.000 0.000 11.175
v -3.097 0.000 8.100
v -2.400 0.000 3.900
v -3.097 0.000 -0.300
v -5.000 0.000 -3.375
v -7.600 0.000 -4.500
v -10.200 0.000 -3.375
v -12.103 0.000 -0.300
v -12.800 0.000 3.900
v -12.103 0.000 8.100
v -10.200 0.000 11.175
v -7.600 0.000 3.900
v 7.600 88.000 7.200
v 11.200 88.000 6.235
v 13.835 88.000 3.600
v 14.800 88.000 0.000
v 13.835 88.000 -3.600
v 11.200 88.000 -6.235
v 7.600 88.000 -7.200
v 4.000 88.000 -6.235
v 1.365 88.000 -3.600
v 0.400 88.000 -0.000
v 1.365 88.000 3.600
v 4.000 88.000 6.235
v 7.600 78.000 6.600
v 10.900 78.000 5.716
v 13.316 78.000 3.300
v 14.200 78.000 0.000
v 13.316 78.000 -3.300
v 10.900 78.000 -5.716
v 7.600 78.000 -6.600
v 4.300 78.000 -5.716
v 1.884 78.000 -3.300
v 1.000 78.000 -0.000
v 1.884 78.000 3.300
v 4.300 78.000 5.716
v 7.600 66.000 5.800
v 10.500 66.000 5.023
v 12.623 66.000 2.900
v 13.400 66.000 0.000
v 12.623 66.000 -2.900
v 10.500 66.000 -5.023
v 7.600 66.000 -5.800
v 4.700 66.000 -5.023
v 2.577 66.000 -2.900
v 1.800 66.000 -0.000
v 2.577 66.000 2.900
v 4.700 66.000 5.023
v 7.600 54.000 5.100
v 10.050 54.000 4.444
v 11.844 54.000 2.650
v 12.500 54.000 0.200
v 11.844 54.000 -2.250
v 10.050 54.000 -4.044
v 7.600 54.000 -4.700
v 5.150 54.000 -4.044
v 3.356 54.000 -2.250
v 2.700 54.000 0.200
v 3.356 54.000 2.650
v 5.150 54.000 4.444
v 7.600 42.000 5.100
v 10.300 42.000 4.377
v 12.277 42.000 2.400
v 13.000 42.000 -0.300
v 12.277 42.000 -3.000
v 10.300 42.000 -4.977
v 7.600 42.000 -5.700
v 4.900 42.000 -4.977
v 2.923 42.000 -3.000
v 2.200 42.000 -0.300
v 2.923 42.000 2.400
v 4.900 42.000 4.377
v 7.600 28.000 3.900
v 9.600 28.000 3.364
v 11.064 28.000 1.900
v 11.600 28.000 -0.100
v 11.064 28.000 -2.100
v 9.600 28.000 -3.564
v 7.600 28.000 -4.100
v 5.600 28.000 -3.564
v 4.136 28.000 -2.100
v 3.600 28.000 -0.100
v 4.136 28.000 1.900
v 5.600 28.000 3.364
v 7.600 14.000 3.400
v 9.300 14.000 2.944
v 10.544 14.000 1.700
v 11.000 14.000 0.000
v 10.544 14.000 -1.700
v 9.300 14.000 -2.944
v 7.600 14.000 -3.400
v 5.900 14.000 -2.944
v 4.656 14.000 -1.700
v 4.200 14.000 -0.000
v 4.656 14.000 1.700
v 5.900 14.000 2.944
v 7.600 12.000 5.300
v 9.500 12.000 4.711
v 10.891 12.000 3.100
v 11.400 12.000 0.900
v 10.891 12.000 -1.300
v 9.500 12.000 -2.911
v 7.600 12.000 -3.500
v 5.700 12.000 -2.911
v 4.309 12.000 -1.300
v 3.800 12.000 0.900
v 4.309 12.000 3.100
v 5.700 12.000 4.711
v 7.600 7.000 8.800
v 9.900 7.000 7.969
v 11.584 7.000 5.700
v 12.200 7.000 2.600
v 11.584 7.000 -0.500
v 9.900 7.000 -2.769
v 7.600 7.000 -3.600
v 5.300 7.000 -2.769
v 3.616 7.000 -0.500
v 3.000 7.000 2.600
v 3.616 7.000 5.700
v 5.300 7.000 7.969
v 7.600 3.000 11.800
v 10.100 3.000 10.728
v 11.930 3.000 7.800
v 12.600 3.000 3.800
v 11.930 3.000 -0.200
v 10.100 3.000 -3.128
v 7.600 3.000 -4.200
v 5.100 3.000 -3.128
v 3.270 3.000 -0.200
v 2.600 3.000 3.800
v 3.270 3.000 7.800
v 5.100 3.000 10.728
v 7.600 0.000 12.300
v 10.200 0.000 11.175
v 12.103 0.000 8.100
v 12.800 0.000 3.900
v 12.103 0.000 -0.300
v 10.200 0.000 -3.375
v 7.600 0.000 -4.500
v 5.000 0.000 -3.375
v 3.097 0.000 -0.300
v 2.400 0.000 3.900
v 3.097 0.000 8.100
v 5.000 0.000 11.175
v 7.600 0.000 3.900

g human_body
f 1 2 18
f 1 18 17
f 2 3 19
f 2 19 18
f 3 4 20
f 3 20 19
f 4 5 21
f 4 21 20
f 5 6 22
f 5 22 21
f 6 7 23
f 6 23 22
f 7 8 24
f 7 24 23
f 8 9 25
f 8 25 24
f 9 10 26
f 9 26 25
f 10 11 27
f 10 27 26
f 11 12 28
f 11 28 27
f 12 13 29
f 12 29 28
f 13 14 30
f 13 30 29
f 14 15 31
f 14 31 30
f 15 16 32
f 15 32 31
f 16 1 17
f 16 17 32
f 17 18 34
f 17 34 33
f 18 19 35
f 18 35 34
f 19 20 36
f 19 36 35
f 20 21 37
f 20 37 36
f 21 22 38
f 21 38 37
f 22 23 39
f 22 39 38
f 23 24 40
f 23 40 39
f 24 25 41
f 24 41 40
f 25 26 42
f 25 42 41
f 26 27 43
f 26 43 42
f 27 28 44
f 27 44 43
f 28 29 45
f 28 45 44
f 29 30 46
f 29 46 45
f 30 31 47
f 30 47 46
f 31 32 48
f 31 48 47
f 32 17 33
f 32 33 48
f 33 34 50
f 33 50 49
f 34 35 51
f 34 51 50
f 35 36 52
f 35 52 51
f 36 37 53
f 36 53 52
f 37 38 54
f 37 54 53
f 38 39 55
f 38 55 54
f 39 40 56
f 39 56 55
f 40 41 57
f 40 57 56
f 41 42 58
f 41 58 57
f 42 43 59
f 42 59 58
f 43 44 60
f 43 60 59
f 44 45 61
f 44 61 60
f 45 46 62
f 45 62 61
f 46 47 63
f 46 63 62
f 47 48 64
f 47 64 63
f 48 33 49
f 48 49 64
f 49 50 66
f 49 66 65
f 50 51 67
f 50 67 66
f 51 52 68
f 51 68 67
f 52 53 69
f 52 69 68
f 53 54 70
f 53 70 69
f 54 55 71
f 54 71 70
f 55 56 72
f 55 72 71
f 56 57 73
f 56 73 72
f 57 58 74
f 57 74 73
f 58 59 75
f 58 75 74
f 59 60 76
f 59 76 75
f 60 61 77
f 60 77 76
f 61 62 78
f 61 78 77
f 62 63 79
f 62 79 78
f 63 64 80
f 63 80 79
f 64 49 65
f 64 65 80
f 65 66 82
f 65 82 81
f 66 67 83
f 66 83 82
f 67 68 84
f 67 84 83
f 68 69 85
f 68 85 84
f 69 70 86
f 69 86 85
f 70 71 87
f 70 87 86
f 71 72 88
f 71 88 87
f 72 73 89
f 72 89 88
f 73 74 90
f 73 90 89
f 74 75 91
f 74 91 90
f 75 76 92
f 75 92 91
f 76 77 93
f 76 93 92
f 77 78 94
f 77 94 93
f 78 79 95
f 78 95 94
f 79 80 96
f 79 96 95
f 80 65 81
f 80 81 96
f 97 81 82
f 97 82 83
f 97 83 84
f 97 84 85
f 97 85 86
f 97 86 87
f 97 87 88
f 97 88 89
f 97 89 90
f 97 90 91
f 97 91 92
f 97 92 93
f 97 93 94
f 97 94 95
f 97 95 96
f 97 96 81
f 98 99 113
f 98 113 112
f 99 100 114
f 99 114 113
f 100 101 115
f 100 115 114
f 101 102 116
f 101 116 115
f 102 103 117
f 102 117 116
f 103 104 118
f 103 118 117
f 104 105 119
f 104 119 118
f 105 106 120
f 105 120 119
f 106 107 121
f 106 121 120
f 107 108 122
f 107 122 121
f 108 109 123
f 108 123 122
f 109 110 124
f 109 124 123
f 110 111 125
f 110 125 124
f 111 98 112
f 111 112 125
f 112 113 127
f 112 127 126
f 113 114 128
f 113 128 127
f 114 115 129
f 114 129 128
f 115 116 130
f 115 130 129
f 116 117 131
f 116 131 130
f 117 118 132
f 117 132 131
f 118 119 133
f 118 133 132
f 119 120 134
f 119 134 133
f 120 121 135
f 120 135 134
f 121 122 136
f 121 136 135
f 122 123 137
f 122 137 136
f 123 124 138
f 123 138 137
f 124 125 139
f 124 139 138
f 125 112 126
f 125 126 139
f 126 127 141
f 126 141 140
f 127 128 142
f 127 142 141
f 128 129 143
f 128 143 142
f 129 130 144
f 129 144 143
f 130 131 145
f 130 145 144
f 131 132 146
f 131 146 145
f 132 133 147
f 132 147 146
f 133 134 148
f 133 148 147
f 134 135 149
f 134 149 148
f 135 136 150
f 135 150 149
f 136 137 151
f 136 151 150
f 137 138 152
f 137 152 151
f 138 139 153
f 138 153 152
f 139 126 140
f 139 140 153
f 154 140 141
f 154 141 142
f 154 142 143
f 154 143 144
f 154 144 145
f 154 145 146
f 154 146 147
f 154 147 148
f 154 148 149
f 154 149 150
f 154 150 151
f 154 151 152
f 154 152 153
f 154 153 140
f 155 156 166
f 155 166 165
f 156 157 167
f 156 167 166
f 157 158 168
f 157 168 167
f 158 159 169
f 158 169 168
f 159 160 170
f 159 170 169
f 160 161 171
f 160 171 170
f 161 162 172
f 161 172 171
f 162 163 173
f 162 173 172
f 163 164 174
f 163 174 173
f 164 155 165
f 164 165 174
f 165 166 176
f 165 176 175
f 166 167 177
f 166 177 176
f 167 168 178
f 167 178 177
f 168 169 179
f 168 179 178
f 169 170 180
f 169 180 179
f 170 171 181
f 170 181 180
f 171 172 182
f 171 182 181
f 172 173 183
f 172 183 182
f 173 174 184
f 173 184 183
f 174 165 175
f 174 175 184
f 185 175 176
f 185 176 177
f 185 177 178
f 185 178 179
f 185 179 180
f 185 180 181
f 185 181 182
f 185 182 183
f 185 183 184
f 185 184 175
f 186 187 201
f 186 201 200
f 187 188 202
f 187 202 201
f 188 189 203
f 188 203 202
f 189 190 204
f 189 204 203
f 190 191 205
f 190 205 204
f 191 192 206
f 191 206 205
f 192 193 207
f 192 207 206
f 193 194 208
f 193 208 207
f 194 195 209
f 194 209 208
f 195 196 210
f 195 210 209
f 196 197 211
f 196 211 210
f 197 198 212
f 197 212 211
f 198 199 213
f 198 213 212
f 199 186 200
f 199 200 213
f 200 201 215
f 200 215 214
f 201 202 216
f 201 216 215
f 202 203 217
f 202 217 216
f 203 204 218
f 203 218 217
f 204 205 219
f 204 219 218
f 205 206 220
f 205 220 219
f 206 207 221
f 206 221 220
f 207 208 222
f 207 222 221
f 208 209 223
f 208 223 222
f 209 210 224
f 209 224 223
f 210 211 225
f 210 225 224
f 211 212 226
f 211 226 225
f 212 213 227
f 212 227 226
f 213 200 214
f 213 214 227
f 228 229 245
f 228 245 244
f 229 230 246
f 229 246 245
f 230 231 247
f 230 247 246
f 231 232 248
f 231 248 247
f 232 233 249
f 232 249 248
f 233 234 250
f 233 250 249
f 234 235 251
f 234 251 250
f 235 236 252
f 235 252 251
f 236 237 253
f 236 253 252
f 237 238 254
f 237 254 253
f 238 239 255
f 238 255 254
f 239 240 256
f 239 256 255
f 240 241 257
f 240 257 256
f 241 242 258
f 241 258 257
f 242 243 259
f 242 259 258
f 243 228 244
f 243 244 259
f 244 245 261
f 244 261 260
f 245 246 262
f 245 262 261
f 246 247 263
f 246 263 262
f 247 248 264
f 247 264 263
f 248 249 265
f 248 265 264
f 249 250 266
f 249 266 265
f 250 251 267
f 250 267 266
f 251 252 268
f 251 268 267
f 252 253 269
f 252 269 268
f 253 254 270
f 253 270 269
f 254 255 271
f 254 271 270
f 255 256 272
f 255 272 271
f 256 257 273
f 256 273 272
f 257 258 274
f 257 274 273
f 258 259 275
f 258 275 274
f 259 244 260
f 259 260 275
f 260 261 277
f 260 277 276
f 261 262 278
f 261 278 277
f 262 263 279
f 262 279 278
f 263 264 280
f 263 280 279
f 264 265 281
f 264 281 280
f 265 266 282
f 265 282 281
f 266 267 283
f 266 283 282
f 267 268 284
f 267 284 283
f 268 269 285
f 268 285 284
f 269 270 286
f 269 286 285
f 270 271 287
f 270 287 286
f 271 272 288
f 271 288 287
f 272 273 289
f 272 289 288
f 273 274 290
f 273 290 289
f 274 275 291
f 274 291 290
f 275 260 276
f 275 276 291
f 276 277 293
f 276 293 292
f 277 278 294
f 277 294 293
f 278 279 295
f 278 295 294
f 279 280 296
f 279 296 295
f 280 281 297
f 280 297 296
f 281 282 298
f 281 298 297
f 282 283 299
f 282 299 298
f 283 284 300
f 283 300 299
f 284 285 301
f 284 301 300
f 285 286 302
f 285 302 301
f 286 287 303
f 286 303 302
f 287 288 304
f 287 304 303
f 288 289 305
f 288 305 304
f 289 290 306
f 289 306 305
f 290 291 307
f 290 307 306
f 291 276 292
f 291 292 307
f 292 293 309
f 292 309 308
f 293 294 310
f 293 310 309
f 294 295 311
f 294 311 310
f 295 296 312
f 295 312 311
f 296 297 313
f 296 313 312
f 297 298 314
f 297 314 313
f 298 299 315
f 298 315 314
f 299 300 316
f 299 316 315
f 300 301 317
f 300 317 316
f 301 302 318
f 301 318 317
f 302 303 319
f 302 319 318
f 303 304 320
f 303 320 319
f 304 305 321
f 304 321 320
f 305 306 322
f 305 322 321
f 306 307 323
f 306 323 322
f 307 292 308
f 307 308 323
f 308 309 325
f 308 325 324
f 309 310 326
f 309 326 325
f 310 311 327
f 310 327 326
f 311 312 328
f 311 328 327
f 312 313 329
f 312 329 328
f 313 314 330
f 313 330 329
f 314 315 331
f 314 331 330
f 315 316 332
f 315 332 331
f 316 317 333
f 316 333 332
f 317 318 334
f 317 334 333
f 318 319 335
f 318 335 334
f 319 320 336
f 319 336 335
f 320 321 337
f 320 337 336
f 321 322 338
f 321 338 337
f 322 323 339
f 322 339 338
f 323 308 324
f 323 324 339
f 324 325 341
f 324 341 340
f 325 326 342
f 325 342 341
f 326 327 343
f 326 343 342
f 327 328 344
f 327 344 343
f 328 329 345
f 328 345 344
f 329 330 346
f 329 346 345
f 330 331 347
f 330 347 346
f 331 332 348
f 331 348 347
f 332 333 349
f 332 349 348
f 333 334 350
f 333 350 349
f 334 335 351
f 334 351 350
f 335 336 352
f 335 352 351
f 336 337 353
f 336 353 352
f 337 338 354
f 337 354 353
f 338 339 355
f 338 355 354
f 339 324 340
f 339 340 355
f 356 357 367
f 356 367 366
f 357 358 368
f 357 368 367
f 358 359 369
f 358 369 368
f 359 360 370
f 359 370 369
f 360 361 371
f 360 371 370
f 361 362 372
f 361 372 371
f 362 363 373
f 362 373 372
f 363 364 374
f 363 374 373
f 364 365 375
f 364 375 374
f 365 356 366
f 365 366 375
f 366 367 377
f 366 377 376
f 367 368 378
f 367 378 377
f 368 369 379
f 368 379 378
f 369 370 380
f 369 380 379
f 370 371 381
f 370 381 380
f 371 372 382
f 371 382 381
f 372 373 383
f 372 383 382
f 373 374 384
f 373 384 383
f 374 375 385
f 374 385 384
f 375 366 376
f 375 376 385
f 376 377 387
f 376 387 386
f 377 378 388
f 377 388 387
f 378 379 389
f 378 389 388
f 379 380 390
f 379 390 389
f 380 381 391
f 380 391 390
f 381 382 392
f 381 392 391
f 382 383 393
f 382 393 392
f 383 384 394
f 383 394 393
f 384 385 395
f 384 395 394
f 385 376 386
f 385 386 395
f 386 387 397
f 386 397 396
f 387 388 398
f 387 398 397
f 388 389 399
f 388 399 398
f 389 390 400
f 389 400 399
f 390 391 401
f 390 401 400
f 391 392 402
f 391 402 401
f 392 393 403
f 392 403 402
f 393 394 404
f 393 404 403
f 394 395 405
f 394 405 404
f 395 386 396
f 395 396 405
f 396 397 407
f 396 407 406
f 397 398 408
f 397 408 407
f 398 399 409
f 398 409 408
f 399 400 410
f 399 410 409
f 400 401 411
f 400 411 410
f 401 402 412
f 401 412 411
f 402 403 413
f 402 413 412
f 403 404 414
f 403 414 413
f 404 405 415
f 404 415 414
f 405 396 406
f 405 406 415
f 406 407 417
f 406 417 416
f 407 408 418
f 407 418 417
f 408 409 419
f 408 419 418
f 409 410 420
f 409 420 419
f 410 411 421
f 410 421 420
f 411 412 422
f 411 422 421
f 412 413 423
f 412 423 422
f 413 414 424
f 413 424 423
f 414 415 425
f 414 425 424
f 415 406 416
f 415 416 425
f 416 417 427
f 416 427 426
f 417 418 428
f 417 428 427
f 418 419 429
f 418 429 428
f 419 420 430
f 419 430 429
f 420 421 431
f 420 431 430
f 421 422 432
f 421 432 431
f 422 423 433
f 422 433 432
f 423 424 434
f 423 434 433
f 424 425 435
f 424 435 434
f 425 416 426
f 425 426 435
f 436 427 426
f 436 428 427
f 436 429 428
f 436 430 429
f 436 431 430
f 436 432 431
f 436 433 432
f 436 434 433
f 436 435 434
f 436 426 435
f 437 438 448
f 437 448 447
f 438 439 449
f 438 449 448
f 439 440 450
f 439 450 449
f 440 441 451
f 440 451 450
f 441 442 452
f 441 452 451
f 442 443 453
f 442 453 452
f 443 444 454
f 443 454 453
f 444 445 455
f 444 455 454
f 445 446 456
f 445 456 455
f 446 437 447
f 446 447 456
f 447 448 458
f 447 458 457
f 448 449 459
f 448 459 458
f 449 450 460
f 449 460 459
f 450 451 461
f 450 461 460
f 451 452 462
f 451 462 461
f 452 453 463
f 452 463 462
f 453 454 464
f 453 464 463
f 454 455 465
f 454 465 464
f 455 456 466
f 455 466 465
f 456 447 457
f 456 457 466
f 457 458 468
f 457 468 467
f 458 459 469
f 458 469 468
f 459 460 470
f 459 470 469
f 460 461 471
f 460 471 470
f 461 462 472
f 461 472 471
f 462 463 473
f 462 473 472
f 463 464 474
f 463 474 473
f 464 465 475
f 464 475 474
f 465 466 476
f 465 476 475
f 466 457 467
f 466 467 476
f 467 468 478
f 467 478 477
f 468 469 479
f 468 479 478
f 469 470 480
f 469 480 479
f 470 471 481
f 470 481 480
f 471 472 482
f 471 482 481
f 472 473 483
f 472 483 482
f 473 474 484
f 473 484 483
f 474 475 485
f 474 485 484
f 475 476 486
f 475 486 485
f 476 467 477
f 476 477 486
f 477 478 488
f 477 488 487
f 478 479 489
f 478 489 488
f 479 480 490
f 479 490 489
f 480 481 491
f 480 491 490
f 481 482 492
f 481 492 491
f 482 483 493
f 482 493 492
f 483 484 494
f 483 494 493
f 484 485 495
f 484 495 494
f 485 486 496
f 485 496 495
f 486 477 487
f 486 487 496
f 487 488 498
f 487 498 497
f 488 489 499
f 488 499 498
f 489 490 500
f 489 500 499
f 490 491 501
f 490 501 500
f 491 492 502
f 491 502 501
f 492 493 503
f 492 503 502
f 493 494 504
f 493 504 503
f 494 495 505
f 494 505 504
f 495 496 506
f 495 506 505
f 496 487 497
f 496 497 506
f 497 498 508
f 497 508 507
f 498 499 509
f 498 509 508
f 499 500 510
f 499 510 509
f 500 501 511
f 500 511 510
f 501 502 512
f 501 512 511
f 502 503 513
f 502 513 512
f 503 504 514
f 503 514 513
f 504 505 515
f 504 515 514
f 505 506 516
f 505 516 515
f 506 497 507
f 506 507 516
f 517 508 507
f 517 509 508
f 517 510 509
f 517 511 510
f 517 512 511
f 517 513 512
f 517 514 513
f 517 515 514
f 517 516 515
f 517 507 516
f 518 519 531
f 518 531 530
f 519 520 532
f 519 532 531
f 520 521 533
f 520 533 532
f 521 522 534
f 521 534 533
f 522 523 535
f 522 535 534
f 523 524 536
f 523 536 535
f 524 525 537
f 524 537 536
f 525 526 538
f 525 538 537
f 526 527 539
f 526 539 538
f 527 528 540
f 527 540 539
f 528 529 541
f 528 541 540
f 529 518 530
f 529 530 541
f 530 531 543
f 530 543 542
f 531 532 544
f 531 544 543
f 532 533 545
f 532 545 544
f 533 534 546
f 533 546 545
f 534 535 547
f 534 547 546
f 535 536 548
f 535 548 547
f 536 537 549
f 536 549 548
f 537 538 550
f 537 550 549
f 538 539 551
f 538 551 550
f 539 540 552
f 539 552 551
f 540 541 553
f 540 553 552
f 541 530 542
f 541 542 553
f 542 543 555
f 542 555 554
f 543 544 556
f 543 556 555
f 544 545 557
f 544 557 556
f 545 546 558
f 545 558 557
f 546 547 559
f 546 559 558
f 547 548 560
f 547 560 559
f 548 549 561
f 548 561 560
f 549 550 562
f 549 562 561
f 550 551 563
f 550 563 562
f 551 552 564
f 551 564 563
f 552 553 565
f 552 565 564
f 553 542 554
f 553 554 565
f 554 555 567
f 554 567 566
f 555 556 568
f 555 568 567
f 556 557 569
f 556 569 568
f 557 558 570
f 557 570 569
f 558 559 571
f 558 571 570
f 559 560 572
f 559 572 571
f 560 561 573
f 560 573 572
f 561 562 574
f 561 574 573
f 562 563 575
f 562 575 574
f 563 564 576
f 563 576 575
f 564 565 577
f 564 577 576
f 565 554 566
f 565 566 577
f 566 567 579
f 566 579 578
f 567 568 580
f 567 580 579
f 568 569 581
f 568 581 580
f 569 570 582
f 569 582 581
f 570 571 583
f 570 583 582
f 571 572 584
f 571 584 583
f 572 573 585
f 572 585 584
f 573 574 586
f 573 586 585
f 574 575 587
f 574 587 586
f 575 576 588
f 575 588 587
f 576 577 589
f 576 589 588
f 577 566 578
f 577 578 589
f 578 579 591
f 578 591 590
f 579 580 592
f 579 592 591
f 580 581 593
f 580 593 592
f 581 582 594
f 581 594 593
f 582 583 595
f 582 595 594
f 583 584 596
f 583 596 595
f 584 585 597
f 584 597 596
f 585 586 598
f 585 598 597
f 586 587 599
f 586 599 598
f 587 588 600
f 587 600 599
f 588 589 601
f 588 601 600
f 589 578 590
f 589 590 601
f 602 603 615
f 602 615 614
f 603 604 616
f 603 616 615
f 604 605 617
f 604 617 616
f 605 606 618
f 605 618 617
f 606 607 619
f 606 619 618
f 607 608 620
f 607 620 619
f 608 609 621
f 608 621 620
f 609 610 622
f 609 622 621
f 610 611 623
f 610 623 622
f 611 612 624
f 611 624 623
f 612 613 625
f 612 625 624
f 613 602 614
f 613 614 625
f 614 615 627
f 614 627 626
f 615 616 628
f 615 628 627
f 616 617 629
f 616 629 628
f 617 618 630
f 617 630 629
f 618 619 631
f 618 631 630
f 619 620 632
f 619 632 631
f 620 621 633
f 620 633 632
f 621 622 634
f 621 634 633
f 622 623 635
f 622 635 634
f 623 624 636
f 623 636 635
f 624 625 637
f 624 637 636
f 625 614 626
f 625 626 637
f 626 627 639
f 626 639 638
f 627 628 640
f 627 640 639
f 628 629 641
f 628 641 640
f 629 630 642
f 629 642 641
f 630 631 643
f 630 643 642
f 631 632 644
f 631 644 643
f 632 633 645
f 632 645 644
f 633 634 646
f 633 646 645
f 634 635 647
f 634 647 646
f 635 636 648
f 635 648 647
f 636 637 649
f 636 649 648
f 637 626 638
f 637 638 649
f 650 639 638
f 650 640 639
f 650 641 640
f 650 642 641
f 650 643 642
f 650 644 643
f 650 645 644
f 650 646 645
f 650 647 646
f 650 648 647
f 650 649 648
f 650 638 649
f 651 652 664
f 651 664 663
f 652 653 665
f 652 665 664
f 653 654 666
f 653 666 665
f 654 655 667
f 654 667 666
f 655 656 668
f 655 668 667
f 656 657 669
f 656 669 668
f 657 658 670
f 657 670 669
f 658 659 671
f 658 671 670
f 659 660 672
f 659 672 671
f 660 661 673
f 660 673 672
f 661 662 674
f 661 674 673
f 662 651 663
f 662 663 674
f 663 664 676
f 663 676 675
f 664 665 677
f 664 677 676
f 665 666 678
f 665 678 677
f 666 667 679
f 666 679 678
f 667 668 680
f 667 680 679
f 668 669 681
f 668 681 680
f 669 670 682
f 669 682 681
f 670 671 683
f 670 683 682
f 671 672 684
f 671 684 683
f 672 673 685
f 672 685 684
f 673 674 686
f 673 686 685
f 674 663 675
f 674 675 686
f 675 676 688
f 675 688 687
f 676 677 689
f 676 689 688
f 677 678 690
f 677 690 689
f 678 679 691
f 678 691 690
f 679 680 692
f 679 692 691
f 680 681 693
f 680 693 692
f 681 682 694
f 681 694 693
f 682 683 695
f 682 695 694
f 683 684 696
f 683 696 695
f 684 685 697
f 684 697 696
f 685 686 698
f 685 698 697
f 686 675 687
f 686 687 698
f 687 688 700
f 687 700 699
f 688 689 701
f 688 701 700
f 689 690 702
f 689 702 701
f 690 691 703
f 690 703 702
f 691 692 704
f 691 704 703
f 692 693 705
f 692 705 704
f 693 694 706
f 693 706 705
f 694 695 707
f 694 707 706
f 695 696 708
f 695 708 707
f 696 697 709
f 696 709 708
f 697 698 710
f 697 710 709
f 698 687 699
f 698 699 710
f 699 700 712
f 699 712 711
f 700 701 713
f 700 713 712
f 701 702 714
f 701 714 713
f 702 703 715
f 702 715 714
f 703 704 716
f 703 716 715
f 704 705 717
f 704 717 716
f 705 706 718
f 705 718 717
f 706 707 719
f 706 719 718
f 707 708 720
f 707 720 719
f 708 709 721
f 708 721 720
f 709 710 722
f 709 722 721
f 710 699 711
f 710 711 722
f 711 712 724
f 711 724 723
f 712 713 725
f 712 725 724
f 713 714 726
f 713 726 725
f 714 715 727
f 714 727 726
f 715 716 728
f 715 728 727
f 716 717 729
f 716 729 728
f 717 718 730
f 717 730 729
f 718 719 731
f 718 731 730
f 719 720 732
f 719 732 731
f 720 721 733
f 720 733 732
f 721 722 734
f 721 734 733
f 722 711 723
f 722 723 734
f 735 736 748
f 735 748 747
f 736 737 749
f 736 749 748
f 737 738 750
f 737 750 749
f 738 739 751
f 738 751 750
f 739 740 752
f 739 752 751
f 740 741 753
f 740 753 752
f 741 742 754
f 741 754 753
f 742 743 755
f 742 755 754
f 743 744 756
f 743 756 755
f 744 745 757
f 744 757 756
f 745 746 758
f 745 758 757
f 746 735 747
f 746 747 758
f 747 748 760
f 747 760 759
f 748 749 761
f 748 761 760
f 749 750 762
f 749 762 761
f 750 751 763
f 750 763 762
f 751 752 764
f 751 764 763
f 752 753 765
f 752 765 764
f 753 754 766
f 753 766 765
f 754 755 767
f 754 767 766
f 755 756 768
f 755 768 767
f 756 757 769
f 756 769 768
f 757 758 770
f 757 770 769
f 758 747 759
f 758 759 770
f 759 760 772
f 759 772 771
f 760 761 773
f 760 773 772
f 761 762 774
f 761 774 773
f 762 763 775
f 762 775 774
f 763 764 776
f 763 776 775
f 764 765 777
f 764 777 776
f 765 766 778
f 765 778 777
f 766 767 779
f 766 779 778
f 767 768 780
f 767 780 779
f 768 769 781
f 768 781 780
f 769 770 782
f 769 782 781
f 770 759 771
f 770 771 782
f 783 772 771
f 783 773 772
f 783 774 773
f 783 775 774
f 783 776 775
f 783 777 776
f 783 778 777
f 783 779 778
f 783 780 779
f 783 781 780
f 783 782 781
f 783 771 782
